<svg width="200" height="200" version="1.1" xmlns="http://www.w3.org/2000/svg" desc="Created with imagetracer.js version 1.2.6" ><path fill="rgb(31,22,19)" stroke="rgb(31,22,19)" stroke-width="1" opacity="0.9137254901960784" d="M 130.5 52 L 131.5 54 L 130.5 52 Z " /><path fill="rgb(31,22,19)" stroke="rgb(31,22,19)" stroke-width="1" opacity="0.9137254901960784" d="M 133.5 54 L 136.5 58 L 133.5 54 Z " /><path fill="rgb(31,22,19)" stroke="rgb(31,22,19)" stroke-width="1" opacity="0.9137254901960784" d="M 91.5 90 L 92 97.5 L 91 97.5 L 91.5 90 Z " /><path fill="rgb(31,22,19)" stroke="rgb(31,22,19)" stroke-width="1" opacity="0.9137254901960784" d="M 82.5 98 Q 84.8 97.3 84 99.5 L 82.5 101 L 73.5 103 L 64 109.5 L 61.5 113 L 61 111.5 Q 68.1 101.1 82.5 98 Z " /><path fill="rgb(31,22,19)" stroke="rgb(31,22,19)" stroke-width="1" opacity="0.9137254901960784" d="M 90.5 99 L 91 100.5 Q 88.4 107.9 82.5 112 L 86 107.5 L 90.5 99 Z " /><path fill="rgb(31,22,19)" stroke="rgb(31,22,19)" stroke-width="1" opacity="0.9137254901960784" d="M 37.5 131 L 40 132.5 L 38.5 132 L 37.5 131 Z " /><path fill="rgb(31,22,19)" stroke="rgb(31,22,19)" stroke-width="1" opacity="0.9137254901960784" d="M 8.5 141 L 10 144.5 L 6.5 149 L 4 147.5 L 3 143.5 L 5.5 143 L 9 144 L 8.5 141 Z " /><path fill="rgb(0,0,0)" stroke="rgb(0,0,0)" stroke-width="1" opacity="0" d="M 0 0 L 200 0 L 200 200 L 89.5 200 L 88.5 199 L 87.5 200 L 0 200 L 0 0 Z M 124 49 L 122 51 L 122 55 L 136 75 L 145 94 Q 115 92 104 110 L 100 115 Q 94 122 83 125 L 72 125 L 62 122 L 67 119 L 76 117 L 86 111 L 93 100 L 93 90 L 91 87 L 85 87 L 79 90 L 54 111 L 49 110 Q 44 111 45 109 L 56 101 Q 62 97 64 90 L 64 85 L 62 81 L 60 80 Q 52 79 50 83 L 39 95 Q 33 102 31 113 Q 21 120 16 134 L 10 140 Q 3 139 2 143 L 2 147 Q 6 149 7 156 Q 10 162 19 163 L 33 163 L 48 156 L 52 156 L 57 160 L 50 162 L 41 163 Q 36 165 37 173 L 45 177 L 55 179 L 49 181 Q 43 183 44 192 L 49 196 L 53 197 Q 71 195 82 185 L 91 175 L 94 172 Q 112 169 126 161 Q 138 154 147 144 L 161 156 L 173 161 Q 179 159 181 162 L 188 161 L 193 157 L 192 150 Q 186 142 177 139 L 171 133 L 185 130 L 194 123 L 194 113 L 191 109 L 185 109 L 176 114 L 169 114 L 159 101 L 141 61 L 132 51 L 124 49 Z " /><path fill="rgb(225,216,209)" stroke="rgb(225,216,209)" stroke-width="1" opacity="0.9529411764705882" d="M 143.5 95 L 146 95.5 L 143.5 96 L 143.5 95 Z " /><path fill="rgb(225,216,209)" stroke="rgb(225,216,209)" stroke-width="1" opacity="0.9529411764705882" d="M 161.5 105 L 162.5 107 L 161.5 105 Z " /><path fill="rgb(225,216,209)" stroke="rgb(225,216,209)" stroke-width="1" opacity="0.9529411764705882" d="M 163.5 108 L 167 114.5 L 166 114.5 L 163.5 108 Z " /><path fill="rgb(225,216,209)" stroke="rgb(225,216,209)" stroke-width="1" opacity="0.9529411764705882" d="M 44.5 111 L 49 111.5 L 44.5 112 L 44.5 111 Z " /><path fill="rgb(225,216,209)" stroke="rgb(225,216,209)" stroke-width="1" opacity="0.9529411764705882" d="M 29.5 115 L 25.5 120 L 29.5 115 Z " /><path fill="rgb(225,216,209)" stroke="rgb(225,216,209)" stroke-width="1" opacity="0.9529411764705882" d="M 97.5 118 L 96.5 120 L 93.5 122 L 95.5 119 L 97.5 118 Z " /><path fill="rgb(225,216,209)" stroke="rgb(225,216,209)" stroke-width="1" opacity="0.9529411764705882" d="M 24.5 121 L 23.5 123 L 24.5 121 Z " /><path fill="rgb(225,216,209)" stroke="rgb(225,216,209)" stroke-width="1" opacity="0.9529411764705882" d="M 91.5 122 L 90.5 124 L 87.5 125 L 87.5 124 L 91.5 122 Z " /><path fill="rgb(225,216,209)" stroke="rgb(225,216,209)" stroke-width="1" opacity="0.9529411764705882" d="M 65.5 124 L 66.5 126 L 65.5 124 Z " /><path fill="rgb(225,216,209)" stroke="rgb(225,216,209)" stroke-width="1" opacity="0.9529411764705882" d="M 83.5 125 L 86 125.5 L 83.5 126 L 83.5 125 Z " /><path fill="rgb(225,216,209)" stroke="rgb(225,216,209)" stroke-width="1" opacity="0.9529411764705882" d="M 72.5 126 L 81 126.5 L 72.5 127 L 72.5 126 Z " /><path fill="rgb(225,216,209)" stroke="rgb(225,216,209)" stroke-width="1" opacity="0.9529411764705882" d="M 19.5 130 L 18.5 132 L 19.5 130 Z " /><path fill="rgb(225,216,209)" stroke="rgb(225,216,209)" stroke-width="1" opacity="0.9529411764705882" d="M 17.5 133 L 10.5 141 L 17.5 133 Z " /><path fill="rgb(225,216,209)" stroke="rgb(225,216,209)" stroke-width="1" opacity="0.9529411764705882" d="M 171.5 135 L 176.5 141 L 171.5 135 Z " /><path fill="rgb(225,216,209)" stroke="rgb(225,216,209)" stroke-width="1" opacity="0.9529411764705882" d="M 178.5 141 L 182 143.5 L 180.5 143 L 178.5 141 Z " /><path fill="rgb(225,216,209)" stroke="rgb(225,216,209)" stroke-width="1" opacity="0.9529411764705882" d="M 185.5 145 L 186.5 147 L 185.5 145 Z " /><path fill="rgb(225,216,209)" stroke="rgb(225,216,209)" stroke-width="1" opacity="0.9529411764705882" d="M 188.5 147 L 192 152.5 L 191 152.5 L 188.5 147 Z " /><path fill="rgb(225,216,209)" stroke="rgb(225,216,209)" stroke-width="1" opacity="0.9529411764705882" d="M 48.5 154 L 52 154.5 L 48.5 155 L 48.5 154 Z " /><path fill="rgb(225,216,209)" stroke="rgb(225,216,209)" stroke-width="1" opacity="0.9529411764705882" d="M 8.5 155 L 16 160.5 L 14.5 161 L 8.5 155 Z " /><path fill="rgb(225,216,209)" stroke="rgb(225,216,209)" stroke-width="1" opacity="0.9529411764705882" d="M 191.5 155 L 192 156.5 L 189 158.5 L 191.5 155 Z " /><path fill="rgb(225,216,209)" stroke="rgb(225,216,209)" stroke-width="1" opacity="0.9529411764705882" d="M 43.5 156 L 42.5 158 L 40.5 159 L 41.5 157 L 43.5 156 Z " /><path fill="rgb(225,216,209)" stroke="rgb(225,216,209)" stroke-width="1" opacity="0.9529411764705882" d="M 185.5 159 L 188 159.5 L 185.5 160 L 185.5 159 Z " /><path fill="rgb(225,216,209)" stroke="rgb(225,216,209)" stroke-width="1" opacity="0.9529411764705882" d="M 50.5 181 L 49.5 183 L 50.5 181 Z " /><path fill="rgb(225,216,209)" stroke="rgb(225,216,209)" stroke-width="1" opacity="0.9529411764705882" d="M 46.5 185 L 46 186.5 L 45.5 188 L 45 186.5 L 46.5 185 Z " /><path fill="rgb(225,216,209)" stroke="rgb(225,216,209)" stroke-width="1" opacity="0.9529411764705882" d="M 45.5 191 L 50 194.5 L 48.5 195 L 45.5 191 Z " /><path fill="rgb(220,216,211)" stroke="rgb(220,216,211)" stroke-width="1" opacity="0.3176470588235294" d="M 123.5 49 L 126 49.5 L 122.5 51 L 123.5 49 Z " /><path fill="rgb(220,216,211)" stroke="rgb(220,216,211)" stroke-width="1" opacity="0.3176470588235294" d="M 131.5 51 L 134.5 55 L 131.5 51 Z " /><path fill="rgb(220,216,211)" stroke="rgb(220,216,211)" stroke-width="1" opacity="0.3176470588235294" d="M 122.5 53 L 124 55.5 L 122 54.5 L 122.5 53 Z " /><path fill="rgb(220,216,211)" stroke="rgb(220,216,211)" stroke-width="1" opacity="0.3176470588235294" d="M 136.5 56 L 140.5 61 L 136.5 56 Z " /><path fill="rgb(220,216,211)" stroke="rgb(220,216,211)" stroke-width="1" opacity="0.3176470588235294" d="M 124.5 57 L 131 65.5 L 128 63.5 L 124.5 57 Z " /><path fill="rgb(220,216,211)" stroke="rgb(220,216,211)" stroke-width="1" opacity="0.3176470588235294" d="M 141.5 62 L 144 65.5 L 142 64.5 L 141.5 62 Z " /><path fill="rgb(220,216,211)" stroke="rgb(220,216,211)" stroke-width="1" opacity="0.3176470588235294" d="M 131.5 67 L 136 73.5 L 134 72.5 L 131.5 67 Z " /><path fill="rgb(220,216,211)" stroke="rgb(220,216,211)" stroke-width="1" opacity="0.3176470588235294" d="M 144.5 67 L 146 70.5 L 145 70.5 L 144.5 67 Z " /><path fill="rgb(220,216,211)" stroke="rgb(220,216,211)" stroke-width="1" opacity="0.3176470588235294" d="M 147.5 74 L 149 77.5 L 148 77.5 L 147.5 74 Z " /><path fill="rgb(220,216,211)" stroke="rgb(220,216,211)" stroke-width="1" opacity="0.3176470588235294" d="M 137.5 77 L 146 95 L 127.5 95 L 124.5 96 L 124.5 95 L 127.5 94 L 145 93.5 L 137 78.5 L 137.5 77 Z " /><path fill="rgb(220,216,211)" stroke="rgb(220,216,211)" stroke-width="1" opacity="0.3176470588235294" d="M 149.5 79 L 151 82.5 L 150 82.5 L 149.5 79 Z " /><path fill="rgb(220,216,211)" stroke="rgb(220,216,211)" stroke-width="1" opacity="0.3176470588235294" d="M 55.5 80 L 62 81 L 64 84.5 L 64 89.5 L 63 89.5 Q 64.3 82.3 59.5 81 Q 54.5 82 55.5 80 Z " /><path fill="rgb(220,216,211)" stroke="rgb(220,216,211)" stroke-width="1" opacity="0.3176470588235294" d="M 52.5 81 L 54 81.5 L 42 91.5 L 38.5 97 L 39 95.5 Q 42.3 87.3 49.5 83 L 52.5 81 Z " /><path fill="rgb(220,216,211)" stroke="rgb(220,216,211)" stroke-width="1" opacity="0.3176470588235294" d="M 151.5 84 L 153 87.5 L 152 87.5 L 151.5 84 Z " /><path fill="rgb(220,216,211)" stroke="rgb(220,216,211)" stroke-width="1" opacity="0.3176470588235294" d="M 84.5 87 Q 91.5 85.5 93 89.5 L 92.5 91 L 90.5 88 L 82.5 89 L 82.5 88 L 84.5 87 Z " /><path fill="rgb(220,216,211)" stroke="rgb(220,216,211)" stroke-width="1" opacity="0.3176470588235294" d="M 80.5 89 L 79.5 91 L 77.5 92 L 78.5 90 L 80.5 89 Z " /><path fill="rgb(220,216,211)" stroke="rgb(220,216,211)" stroke-width="1" opacity="0.3176470588235294" d="M 154.5 91 L 156 93.5 L 154 92.5 L 154.5 91 Z " /><path fill="rgb(220,216,211)" stroke="rgb(220,216,211)" stroke-width="1" opacity="0.3176470588235294" d="M 75.5 92 L 73.5 95 L 75.5 92 Z " /><path fill="rgb(220,216,211)" stroke="rgb(220,216,211)" stroke-width="1" opacity="0.3176470588235294" d="M 61.5 94 L 59.5 97 L 61.5 94 Z " /><path fill="rgb(220,216,211)" stroke="rgb(220,216,211)" stroke-width="1" opacity="0.3176470588235294" d="M 71.5 95 L 68.5 99 L 71.5 95 Z " /><path fill="rgb(220,216,211)" stroke="rgb(220,216,211)" stroke-width="1" opacity="0.3176470588235294" d="M 156.5 95 L 158 97.5 L 157 97.5 L 156.5 95 Z " /><path fill="rgb(220,216,211)" stroke="rgb(220,216,211)" stroke-width="1" opacity="0.3176470588235294" d="M 92.5 96 L 93 99.5 L 91.5 102 L 91 100.5 L 92.5 96 Z " /><path fill="rgb(220,216,211)" stroke="rgb(220,216,211)" stroke-width="1" opacity="0.3176470588235294" d="M 118.5 97 L 120 97.5 L 117.5 99 L 118.5 97 Z " /><path fill="rgb(220,216,211)" stroke="rgb(220,216,211)" stroke-width="1" opacity="0.3176470588235294" d="M 37.5 98 L 37 99.5 L 33.5 107 L 33 105.5 L 37.5 98 Z " /><path fill="rgb(220,216,211)" stroke="rgb(220,216,211)" stroke-width="1" opacity="0.3176470588235294" d="M 57.5 98 L 55.5 101 L 57.5 98 Z " /><path fill="rgb(220,216,211)" stroke="rgb(220,216,211)" stroke-width="1" opacity="0.3176470588235294" d="M 66.5 99 L 62.5 104 L 53.5 112 L 49.5 112 L 44 111 L 44.5 109 Q 47.4 111.6 53.5 111 L 66.5 99 Z " /><path fill="rgb(220,216,211)" stroke="rgb(220,216,211)" stroke-width="1" opacity="0.3176470588235294" d="M 115.5 99 L 114.5 101 L 113 100.5 L 115.5 99 Z " /><path fill="rgb(220,216,211)" stroke="rgb(220,216,211)" stroke-width="1" opacity="0.3176470588235294" d="M 158.5 99 L 168.5 114 L 175.5 114 L 184.5 109 L 190.5 109 Q 194.8 109.7 194 115.5 L 193 115.5 Q 193.8 110.8 190.5 110 L 184.5 110 L 175.5 115 L 167 115 Q 165.2 107.2 159 102.5 L 158.5 99 Z " /><path fill="rgb(220,216,211)" stroke="rgb(220,216,211)" stroke-width="1" opacity="0.3176470588235294" d="M 111.5 102 L 105 109.5 L 96.5 119 Q 89 127.5 71.5 126 L 66.5 125 L 61 121.5 L 65.5 119 L 65.5 120 L 62 121.5 L 71.5 125 L 82.5 125 Q 93.8 122.3 100 114.5 L 104 109.5 L 111.5 102 Z " /><path fill="rgb(220,216,211)" stroke="rgb(220,216,211)" stroke-width="1" opacity="0.3176470588235294" d="M 50.5 103 L 48.5 106 L 50.5 103 Z " /><path fill="rgb(220,216,211)" stroke="rgb(220,216,211)" stroke-width="1" opacity="0.3176470588235294" d="M 89.5 105 L 87.5 108 L 89.5 105 Z " /><path fill="rgb(220,216,211)" stroke="rgb(220,216,211)" stroke-width="1" opacity="0.3176470588235294" d="M 31.5 111 L 32 112.5 L 31 115 L 25 119.5 Q 20 133 9.5 141 Q 4.3 139.8 3 142.5 L 2.5 144 L 2 142.5 Q 3.3 138.8 9.5 140 L 16 133.5 Q 21.4 119.9 31.5 111 Z " /><path fill="rgb(220,216,211)" stroke="rgb(220,216,211)" stroke-width="1" opacity="0.3176470588235294" d="M 67.5 118 L 70 118.5 L 67.5 119 L 67.5 118 Z " /><path fill="rgb(220,216,211)" stroke="rgb(220,216,211)" stroke-width="1" opacity="0.3176470588235294" d="M 193.5 118 L 194 122.5 L 184.5 130 L 171 132.5 L 176.5 139 Q 186.2 142.3 192 149.5 L 193 156.5 L 187.5 161 L 180.5 162 Q 178.7 159.3 172.5 161 L 160.5 156 L 146.5 144 Q 132.4 160.4 109.5 168 L 109.5 167 Q 131.3 159.8 145 144.5 Q 144.2 141.5 148 143 L 152.5 149 Q 160.4 156.6 172.5 160 L 187.5 160 L 192 156.5 Q 193.1 148.9 188.5 147 Q 177.5 143 171 134.5 L 170 131 L 184.5 129 L 192 123.5 L 193.5 118 Z " /><path fill="rgb(220,216,211)" stroke="rgb(220,216,211)" stroke-width="1" opacity="0.3176470588235294" d="M 3.5 147 L 4.5 149 L 3.5 147 Z " /><path fill="rgb(220,216,211)" stroke="rgb(220,216,211)" stroke-width="1" opacity="0.3176470588235294" d="M 5.5 150 L 8 155.5 L 12.5 160 Q 19.8 163.7 32.5 162 L 46.5 155 L 52.5 155 Q 54.6 158.4 60 158.5 L 53.5 162 L 40.5 164 L 38 166.5 Q 36.8 173.8 41.5 175 L 49.5 177 L 59 177.5 L 50.5 181 L 45 186.5 Q 43.8 193.8 48.5 195 L 55 196.5 L 52.5 197 L 48.5 196 L 44 191.5 Q 42.9 182.9 48.5 181 L 55 178.5 L 44.5 177 L 37 172.5 Q 35.5 164.5 40.5 163 L 49.5 162 L 57 159.5 L 51.5 156 L 47.5 156 L 32.5 163 L 18.5 163 Q 10.4 161.6 7 155.5 L 5.5 150 Z " /><path fill="rgb(220,216,211)" stroke="rgb(220,216,211)" stroke-width="1" opacity="0.3176470588235294" d="M 102.5 169 L 105 169.5 L 97.5 172 L 93.5 172 L 91 174.5 L 81.5 185 L 66.5 194 L 56.5 196 L 56.5 195 Q 78.9 190.9 90 175.5 L 93.5 171 Q 99.6 171.6 102.5 169 Z " /><path fill="rgb(229,214,205)" stroke="rgb(229,214,205)" stroke-width="1" opacity="1" d="M 137 95 L 145.5 96 L 148.5 99 L 154.5 102 L 158.5 102 L 161 104.5 L 168 116.5 L 170 130.5 L 170 132.5 Q 171.4 138.6 176.5 141 L 190 149.5 L 192 154.5 L 188.5 159 L 176.5 160 Q 164 157 156 149.5 L 155.5 147 L 154.5 148 L 148 141.5 Q 142.1 135.1 141 125 Q 137 123.6 139 130.5 L 145 141.5 Q 126 162.8 94 170 L 96 162.5 L 93.5 158 Q 90.8 159.3 93 160.5 L 90 171.5 L 81.5 181 L 78.5 183 Q 69.2 194.2 48.5 194 Q 44.5 193.5 45 188.5 L 48.5 183 L 61 178 L 67 170.5 L 69 165.5 L 63.5 159 L 60 157.5 L 65 153.5 L 71 139.5 L 72 127 L 85.5 126 L 97 120 L 98 125 L 103.5 126 L 119.5 118 Q 121 120.5 126.5 119 L 136 110.5 L 139 100.5 L 137 95 Z M 146 109 L 143 112 Q 137 111 136 115 L 137 120 Q 140 123 148 122 Q 152 119 151 112 Q 150 108 146 109 Z M 87 132 L 85 134 L 87 134 L 87 132 Z M 149 134 L 149 136 L 151 135 L 149 134 Z M 154 139 L 152 141 Q 151 143 154 142 L 155 140 L 154 139 Z M 163 140 Q 162 143 165 142 Q 166 139 163 140 Z M 155 143 L 155 144 L 157 144 L 155 143 Z M 117 147 L 117 149 L 116 149 L 114 150 Q 115 147 113 148 L 111 151 L 118 150 L 119 148 L 117 147 Z M 125 152 L 126 153 L 127 154 Q 128 151 125 152 Z M 107 158 L 108 161 L 109 159 L 107 158 Z " /><path fill="rgb(229,214,205)" stroke="rgb(229,214,205)" stroke-width="1" opacity="1" d="M 42.5 111 L 49.5 112 L 51 113.5 L 50 117 L 55 120.5 L 57.5 124 L 60.5 122 L 67 126.5 L 63 141.5 Q 59.9 149.9 53.5 155 L 48.5 154 L 36.5 160 L 27.5 162 L 27.5 161 Q 33.3 159.8 36 155.5 Q 36.8 153.3 34.5 154 L 25.5 160 L 16.5 161 L 8 154.5 L 7 149.5 Q 12.3 148.3 11 140.5 L 18 133.5 Q 21.9 121.9 30.5 115 L 33.5 113 L 42.5 111 Z M 33 115 L 28 118 L 29 121 L 35 116 L 33 115 Z M 38 115 L 36 118 L 40 116 L 38 115 Z M 33 120 L 30 124 L 34 121 L 33 120 Z M 26 124 L 24 127 L 26 126 L 26 124 Z M 34 130 L 33 131 Q 30 130 31 133 L 35 132 L 40 134 Q 43 135 41 131 Q 39 129 34 130 Z M 48 147 L 48 149 L 50 148 L 48 147 Z " /><path fill="rgb(214,201,192)" stroke="rgb(214,201,192)" stroke-width="1" opacity="0.996078431372549" d="M 130.5 58 L 131.5 60 L 130.5 58 Z " /><path fill="rgb(214,201,192)" stroke="rgb(214,201,192)" stroke-width="1" opacity="0.996078431372549" d="M 146.5 96 L 148.5 99 L 146.5 96 Z " /><path fill="rgb(214,201,192)" stroke="rgb(214,201,192)" stroke-width="1" opacity="0.996078431372549" d="M 138.5 100 L 139 102.5 L 138 102.5 L 138.5 100 Z " /><path fill="rgb(214,201,192)" stroke="rgb(214,201,192)" stroke-width="1" opacity="0.996078431372549" d="M 154.5 101 L 158 101.5 L 154.5 102 L 154.5 101 Z " /><path fill="rgb(214,201,192)" stroke="rgb(214,201,192)" stroke-width="1" opacity="0.996078431372549" d="M 145.5 109 L 147 109.5 L 142.5 113 L 139.5 113 L 139.5 112 Q 144.7 112.7 145.5 109 Z " /><path fill="rgb(214,201,192)" stroke="rgb(214,201,192)" stroke-width="1" opacity="0.996078431372549" d="M 148.5 109 L 150.5 112 L 148.5 109 Z " /><path fill="rgb(214,201,192)" stroke="rgb(214,201,192)" stroke-width="1" opacity="0.996078431372549" d="M 135.5 110 L 133.5 113 L 135.5 110 Z " /><path fill="rgb(214,201,192)" stroke="rgb(214,201,192)" stroke-width="1" opacity="0.996078431372549" d="M 184.5 110 Q 191.5 108.5 193 112.5 L 194 117.5 L 192 123.5 L 189.5 126 L 184.5 129 L 180.5 129 Q 176.6 131.9 170 131 L 169 119.5 L 167 115.5 Q 179.2 116.2 184.5 110 Z " /><path fill="rgb(214,201,192)" stroke="rgb(214,201,192)" stroke-width="1" opacity="0.996078431372549" d="M 38.5 111 L 42 111.5 L 38.5 112 L 38.5 111 Z " /><path fill="rgb(214,201,192)" stroke="rgb(214,201,192)" stroke-width="1" opacity="0.996078431372549" d="M 34.5 112 L 37 112.5 L 34.5 113 L 34.5 112 Z " /><path fill="rgb(214,201,192)" stroke="rgb(214,201,192)" stroke-width="1" opacity="0.996078431372549" d="M 52.5 112 L 51.5 114 L 52.5 112 Z " /><path fill="rgb(214,201,192)" stroke="rgb(214,201,192)" stroke-width="1" opacity="0.996078431372549" d="M 137.5 113 L 137 114.5 L 136.5 118 L 136 114.5 L 137.5 113 Z " /><path fill="rgb(214,201,192)" stroke="rgb(214,201,192)" stroke-width="1" opacity="0.996078431372549" d="M 32.5 115 L 35 115.5 L 28.5 121 L 28 118 L 32.5 115 Z " /><path fill="rgb(214,201,192)" stroke="rgb(214,201,192)" stroke-width="1" opacity="0.996078431372549" d="M 37.5 115 L 40 115.5 L 35.5 118 L 37.5 115 Z " /><path fill="rgb(214,201,192)" stroke="rgb(214,201,192)" stroke-width="1" opacity="0.996078431372549" d="M 129.5 116 L 128.5 118 L 129.5 116 Z " /><path fill="rgb(214,201,192)" stroke="rgb(214,201,192)" stroke-width="1" opacity="0.996078431372549" d="M 52.5 117 L 54.5 120 L 52.5 117 Z " /><path fill="rgb(214,201,192)" stroke="rgb(214,201,192)" stroke-width="1" opacity="0.996078431372549" d="M 120.5 118 L 127 118.5 L 120.5 119 L 120.5 118 Z " /><path fill="rgb(214,201,192)" stroke="rgb(214,201,192)" stroke-width="1" opacity="0.996078431372549" d="M 97.5 119 L 98 122.5 L 97 122.5 L 97.5 119 Z " /><path fill="rgb(214,201,192)" stroke="rgb(214,201,192)" stroke-width="1" opacity="0.996078431372549" d="M 32.5 120 L 34 120.5 L 30 123.5 L 32.5 120 Z " /><path fill="rgb(214,201,192)" stroke="rgb(214,201,192)" stroke-width="1" opacity="0.996078431372549" d="M 148.5 120 L 147.5 122 L 141 121.5 L 148.5 120 Z " /><path fill="rgb(214,201,192)" stroke="rgb(214,201,192)" stroke-width="1" opacity="0.996078431372549" d="M 55.5 121 L 57.5 124 L 55.5 121 Z " /><path fill="rgb(214,201,192)" stroke="rgb(214,201,192)" stroke-width="1" opacity="0.996078431372549" d="M 60.5 121 L 59.5 123 L 60.5 121 Z " /><path fill="rgb(214,201,192)" stroke="rgb(214,201,192)" stroke-width="1" opacity="0.996078431372549" d="M 110.5 121 L 109.5 123 L 110.5 121 Z " /><path fill="rgb(214,201,192)" stroke="rgb(214,201,192)" stroke-width="1" opacity="0.996078431372549" d="M 25.5 124 L 26 125.5 L 24 126.5 L 25.5 124 Z " /><path fill="rgb(214,201,192)" stroke="rgb(214,201,192)" stroke-width="1" opacity="0.996078431372549" d="M 67.5 125 L 69.5 125 L 72 126.5 L 71.5 135 L 70.5 131 L 63 150.5 L 56.5 158 L 54 154.5 Q 60.1 149.6 63 141.5 L 67.5 125 Z " /><path fill="rgb(214,201,192)" stroke="rgb(214,201,192)" stroke-width="1" opacity="0.996078431372549" d="M 100.5 125 L 104 125.5 L 100.5 126 L 100.5 125 Z " /><path fill="rgb(214,201,192)" stroke="rgb(214,201,192)" stroke-width="1" opacity="0.996078431372549" d="M 139 125 Q 142.3 123.7 141 128.5 Q 145 141 154.5 148 L 156 147.5 L 157.5 151 L 174 159.5 L 172.5 160 Q 157 155.5 148 144.5 Q 148.7 141.5 145 143 L 138.5 151 L 115.5 165 Q 106.5 170 93.5 171 L 90 174.5 L 81.5 184 L 66.5 193 L 52.5 196 L 50 194.5 Q 67.5 194 76 184.5 L 75 182.5 L 76 182.5 Q 75.3 184.8 77.5 184 L 80 183 L 79 180.5 L 80.5 181 L 87 175.5 Q 92.3 170.3 93 160.5 Q 90.8 159.3 93.5 158 L 96 163.5 L 94 170 Q 126 162.8 145 141.5 L 139 130.5 L 139 125 Z " /><path fill="rgb(214,201,192)" stroke="rgb(214,201,192)" stroke-width="1" opacity="0.996078431372549" d="M 86.5 132 L 87 134 L 85 133.5 L 86.5 132 Z " /><path fill="rgb(214,201,192)" stroke="rgb(214,201,192)" stroke-width="1" opacity="0.996078431372549" d="M 149 134 L 151 134.5 L 149 135.5 L 149 134 Z " /><path fill="rgb(214,201,192)" stroke="rgb(214,201,192)" stroke-width="1" opacity="0.996078431372549" d="M 70.5 136 L 71 139.5 L 70 139.5 L 70.5 136 Z " /><path fill="rgb(214,201,192)" stroke="rgb(214,201,192)" stroke-width="1" opacity="0.996078431372549" d="M 153.5 139 L 155 139.5 L 154 142 Q 151.3 143.1 152 140.5 L 153.5 139 Z " /><path fill="rgb(214,201,192)" stroke="rgb(214,201,192)" stroke-width="1" opacity="0.996078431372549" d="M 163 140 Q 166 139 165 142 Q 162 143 163 140 Z " /><path fill="rgb(214,201,192)" stroke="rgb(214,201,192)" stroke-width="1" opacity="0.996078431372549" d="M 4.5 142 L 8 142.5 L 4.5 143 L 4.5 142 Z " /><path fill="rgb(214,201,192)" stroke="rgb(214,201,192)" stroke-width="1" opacity="0.996078431372549" d="M 154.5 143 L 157 143.5 L 153.5 145 L 154.5 143 Z " /><path fill="rgb(214,201,192)" stroke="rgb(214,201,192)" stroke-width="1" opacity="0.996078431372549" d="M 10.5 144 L 11 145.5 L 9 146.5 L 10.5 144 Z " /><path fill="rgb(214,201,192)" stroke="rgb(214,201,192)" stroke-width="1" opacity="0.996078431372549" d="M 48 147 L 50 147.5 L 46.5 150 L 46.5 149 Q 49.1 149.7 48 147 Z " /><path fill="rgb(214,201,192)" stroke="rgb(214,201,192)" stroke-width="1" opacity="0.996078431372549" d="M 116.5 147 L 119 147.5 L 118 150 L 111 151 L 112.5 148 Q 114.8 147.3 114 149.5 L 115.5 149 L 117 148.5 L 116.5 147 Z " /><path fill="rgb(214,201,192)" stroke="rgb(214,201,192)" stroke-width="1" opacity="0.996078431372549" d="M 65.5 151 L 65 152.5 L 61.5 157 L 64 153.5 L 65.5 151 Z " /><path fill="rgb(214,201,192)" stroke="rgb(214,201,192)" stroke-width="1" opacity="0.996078431372549" d="M 127.5 151 L 127 152.5 L 126.5 154 L 124 152.5 L 127.5 151 Z " /><path fill="rgb(214,201,192)" stroke="rgb(214,201,192)" stroke-width="1" opacity="0.996078431372549" d="M 34.5 154 Q 36.8 153.3 36 155.5 L 33 156.5 Q 35.3 157.8 32.5 159 L 32 156.5 L 34.5 154 Z " /><path fill="rgb(214,201,192)" stroke="rgb(214,201,192)" stroke-width="1" opacity="0.996078431372549" d="M 70.5 154 L 71.5 156 L 70.5 154 Z " /><path fill="rgb(214,201,192)" stroke="rgb(214,201,192)" stroke-width="1" opacity="0.996078431372549" d="M 59.5 157 L 68 163.5 L 69 166.5 L 60.5 178 L 56 176.5 L 61 175.5 L 55 175 Q 56.1 177.7 53.5 177 L 50.5 176 L 48.5 176 Q 40.4 176.6 38 171.5 Q 36.8 165.3 40.5 164 L 53.5 162 L 60 158.5 L 59.5 157 Z " /><path fill="rgb(214,201,192)" stroke="rgb(214,201,192)" stroke-width="1" opacity="0.996078431372549" d="M 109.5 157 L 108 159.5 L 107.5 161 L 107 158 L 109.5 157 Z " /><path fill="rgb(214,201,192)" stroke="rgb(214,201,192)" stroke-width="1" opacity="0.996078431372549" d="M 18 160 Q 23.7 159.1 27 161.5 L 18 162 L 18 160 Z " /><path fill="rgb(116,100,91)" stroke="rgb(116,100,91)" stroke-width="1" opacity="0.9372549019607843" d="M 126.5 49 L 133 53.5 L 134.5 56 L 136 55.5 Q 133.7 56.8 136.5 58 L 141 61.5 L 158 101 L 153.5 101 L 146 95.5 L 135 71.5 L 124 56.5 L 122 51.5 L 126.5 49 Z " /><path fill="rgb(116,100,91)" stroke="rgb(116,100,91)" stroke-width="1" opacity="0.9372549019607843" d="M 54.5 81 Q 61.8 79.8 63 84.5 Q 64.5 91.5 61.5 91 L 62 92.5 L 59 98 L 45 107 L 44 111 Q 36.5 110.3 32 113 Q 36.3 94.6 49.5 84 L 54.5 81 Z " /><path fill="rgb(116,100,91)" stroke="rgb(116,100,91)" stroke-width="1" opacity="0.9372549019607843" d="M 84.5 88 Q 90.5 86.5 92 89.5 Q 89.2 91.3 91 97.5 L 92 99.5 L 90 99.5 L 91 102.5 L 88.5 106 Q 87.3 103.8 86 106.5 L 87 110 L 74.5 117 Q 63.7 117.7 57.5 123 L 52.5 117 Q 49.9 117.8 51 114.5 L 72.5 95 L 84.5 88 Z M 83 98 L 69 104 L 66 108 L 74 103 L 83 101 L 84 100 Q 85 97 83 98 Z M 64 109 L 61 113 L 64 111 L 64 109 Z " /><path fill="rgb(116,100,91)" stroke="rgb(116,100,91)" stroke-width="1" opacity="0.9372549019607843" d="M 92.5 91 L 93 95.5 L 92 95.5 L 92.5 91 Z " /><path fill="rgb(116,100,91)" stroke="rgb(116,100,91)" stroke-width="1" opacity="0.9372549019607843" d="M 127.5 95 L 135.5 95 L 137 96.5 L 138 104.5 Q 135.9 111.9 130.5 116 L 127.5 118 L 116.5 118 L 104.5 125 L 99.5 125 Q 96.8 123.8 98 118.5 L 112 101 L 127.5 95 Z " /><path fill="rgb(116,100,91)" stroke="rgb(116,100,91)" stroke-width="1" opacity="0.9372549019607843" d="M 147.5 109 Q 151.5 109.5 151 114.5 L 147.5 121 Q 139.5 122.5 137 118.5 Q 136 114 138.5 113 L 142.5 113 L 147.5 109 Z " /><path fill="rgb(116,100,91)" stroke="rgb(116,100,91)" stroke-width="1" opacity="0.9372549019607843" d="M 34.5 130 L 38 130.5 L 32.5 133 L 32 131 L 34.5 130 Z " /><path fill="rgb(116,100,91)" stroke="rgb(116,100,91)" stroke-width="1" opacity="0.9372549019607843" d="M 39.5 131 L 40.5 133 L 38 132.5 L 39.5 131 Z " /><path fill="rgb(116,100,91)" stroke="rgb(116,100,91)" stroke-width="1" opacity="0.9372549019607843" d="M 70.5 131 L 71 135.5 L 69 144.5 L 60.5 157 L 57.5 158 L 61 153.5 L 68 139.5 L 69 132.5 L 70.5 131 Z " /><path fill="rgb(116,100,91)" stroke="rgb(116,100,91)" stroke-width="1" opacity="0.9372549019607843" d="M 4.5 141 L 8.5 142 L 10 141.5 L 9 144 L 7 143.5 L 7.5 142 L 4 142.5 L 4.5 144 Q 1.5 142.5 4.5 141 Z " /><path fill="rgb(116,100,91)" stroke="rgb(116,100,91)" stroke-width="1" opacity="0.9372549019607843" d="M 8.5 147 L 6.5 150 L 5 149.5 L 8.5 147 Z " /><path fill="rgb(116,100,91)" stroke="rgb(116,100,91)" stroke-width="1" opacity="0.9372549019607843" d="M 34.5 155 L 35 157 L 27.5 161 L 24.5 161 L 24.5 160 L 34.5 155 Z " /><path fill="rgb(116,100,91)" stroke="rgb(116,100,91)" stroke-width="1" opacity="0.9372549019607843" d="M 53.5 155 L 54.5 157 L 53.5 155 Z " /><path fill="rgb(116,100,91)" stroke="rgb(116,100,91)" stroke-width="1" opacity="0.9372549019607843" d="M 55 175 L 61 175.5 L 55.5 177 L 55 175 Z " /><path fill="rgb(116,100,91)" stroke="rgb(116,100,91)" stroke-width="1" opacity="0.9372549019607843" d="M 50.5 176 L 53 176.5 L 50.5 177 L 50.5 176 Z " /></svg>